<?xml version="1.0" encoding="utf-8"?>
<!-- Generator: Adobe Illustrator 15.0.2, SVG Export Plug-In . SVG Version: 6.00 Build 0)  -->
<!DOCTYPE svg PUBLIC "-//W3C//DTD SVG 1.1//EN" "http://www.w3.org/Graphics/SVG/1.1/DTD/svg11.dtd">
<svg version="1.1" id="Calque_1" xmlns="http://www.w3.org/2000/svg" xmlns:xlink="http://www.w3.org/1999/xlink" x="0px" y="0px"
	 width="50px" height="50px" viewBox="231 231 50 50" enable-background="new 231 231 50 50" xml:space="preserve">
<path id="picture-attachment-icon" fill="#4E9FD6" d="M277.412,253.266l-19.841,18.799c-4.605,4.363-12.099,4.363-16.705,0
	c-4.605-4.364-4.605-11.465,0-15.83l19.487-18.465c3.423-3.243,8.993-3.243,12.416,0c3.424,3.243,3.424,8.521,0,11.765
	l-17.303,16.394c-2.229,2.112-5.855,2.112-8.084,0c-2.229-2.112-2.229-5.548,0-7.66l13.966-13.233l2.913,2.759l-13.967,13.234
	c-0.624,0.591-0.624,1.551,0,2.142c0.623,0.591,1.637,0.591,2.26,0l17.303-16.395c1.817-1.722,1.817-4.523,0-6.246
	c-1.817-1.722-4.773-1.722-6.591,0l-19.488,18.466c-3,2.842-3,7.467,0,10.31c3,2.844,7.881,2.844,10.881,0l19.84-18.799
	L277.412,253.266z"/>
</svg>
