<?xml version="1.0" encoding="utf-8"?>
<!-- Generator: Adobe Illustrator 15.0.2, SVG Export Plug-In . SVG Version: 6.00 Build 0)  -->
<!DOCTYPE svg PUBLIC "-//W3C//DTD SVG 1.1//EN" "http://www.w3.org/Graphics/SVG/1.1/DTD/svg11.dtd">
<svg version="1.1" id="Calque_1" xmlns="http://www.w3.org/2000/svg" xmlns:xlink="http://www.w3.org/1999/xlink" x="0px" y="0px"
	 width="50px" height="50px" viewBox="0 0 50 50" enable-background="new 0 0 50 50" xml:space="preserve">
<circle display="none" fill="#FFFFFF" cx="24.878" cy="26.054" r="235.503"/>
<circle display="none" fill="none" stroke="#F7931E" stroke-width="4" stroke-linecap="round" cx="24.878" cy="26.054" r="219.527"/>
<circle fill="none" cx="24.878" cy="26.053" r="163.314"/>
<text transform="matrix(0.5404 -0.8414 0.8414 0.5404 -123.6104 -44.9941)" display="none"><tspan x="0" y="0" display="inline" fill="#009EE0" font-family="'You'reGone'" font-size="70">C</tspan><tspan x="44.256" y="0.675" display="inline" fill="#009EE0" font-family="'You'reGone'" font-size="70" rotate="14.886">R</tspan><tspan x="83.988" y="11.886" display="inline" fill="#009EE0" font-family="'You'reGone'" font-size="70" rotate="28.726">E</tspan><tspan x="117.513" y="30.189" display="inline" fill="#009EE0" font-family="'You'reGone'" font-size="70" rotate="43.606">A</tspan><tspan x="150.437" y="62.954" display="inline" fill="#009EE0" font-family="'You'reGone'" font-size="70" rotate="58.381">T</tspan><tspan x="169.561" y="96.134" display="inline" fill="#009EE0" font-family="'You'reGone'" font-size="70" rotate="68.61">I</tspan><tspan x="178.289" y="114.768" display="inline" fill="#009EE0" font-family="'You'reGone'" font-size="70" rotate="81.326">O</tspan><tspan x="185.366" y="166.278" display="inline" fill="#009EE0" font-family="'You'reGone'" font-size="70" rotate="99.068">N</tspan><tspan x="176.301" y="215.121" display="inline" fill="#009EE0" font-family="'You'reGone'" font-size="70" rotate="114.359">S</tspan></text>
<g>
	<path fill="#009EE0" d="M38.623,28.663v-0.002c-2.553-0.026-4.616-2.103-4.616-4.662c0-2.562,2.062-4.638,4.616-4.665v-0.002h10.1
		C46.313,8.894,37.103,1.056,26.008,0.737v48.041c11.626-0.334,21.183-8.925,23.011-20.115H38.623z"/>
	<path fill="#009EE0" d="M24.602,37.992h-6.92v-0.001c-2.554-0.026-4.617-2.104-4.617-4.663c0-2.561,2.062-4.639,4.617-4.664v-0.001
		h6.92V0.737C17.178,0.95,10.599,4.53,6.336,10.003h5.61v0.001c2.554,0.026,4.617,2.104,4.617,4.665
		c0,2.559-2.063,4.636-4.617,4.662v0.002H1.888c-0.402,1.744-0.615,3.56-0.615,5.425c0,13.037,10.382,23.648,23.329,24.021V37.992z"
		/>
</g>
</svg>
