<?xml version="1.0" encoding="utf-8"?>
<!-- Generator: Adobe Illustrator 15.0.2, SVG Export Plug-In . SVG Version: 6.00 Build 0)  -->
<!DOCTYPE svg PUBLIC "-//W3C//DTD SVG 1.1//EN" "http://www.w3.org/Graphics/SVG/1.1/DTD/svg11.dtd">
<svg version="1.1" id="Calque_1" xmlns="http://www.w3.org/2000/svg" xmlns:xlink="http://www.w3.org/1999/xlink" x="0px" y="0px"
	 width="50px" height="50px" viewBox="0 0 50 50" enable-background="new 0 0 50 50" xml:space="preserve">
<g id="Tâches">
	<polygon fill="#49A0DF" points="19.097,29.975 19.098,29.975 19.096,29.971 	"/>
	<polygon fill="#49A0DF" points="24.973,24.094 19.098,29.975 30.17,41.047 48.885,22.336 44.607,17.985 30.291,29.874 	"/>
	<path fill="#49A0DF" d="M38.512,45.829H4.188V7.048h4.078v1.548c0,0.819,0.672,1.493,1.492,1.493h0.373
		c0.821,0,1.493-0.673,1.493-1.493V7.048h4.362v1.548c0,0.819,0.672,1.493,1.492,1.493h0.373c0.821,0,1.493-0.673,1.493-1.493V7.048
		h4.361v1.548c0,0.819,0.672,1.493,1.492,1.493h0.374c0.82,0,1.492-0.673,1.492-1.493V7.048h4.36v1.548
		c0,0.819,0.673,1.493,1.492,1.493h0.373c0.821,0,1.491-0.673,1.491-1.493V7.048h0.892l2.841,2.79v8.36l2.984-2.478V8.584
		l-4.605-4.521h-2.109V2.551c0-0.819-0.672-1.493-1.492-1.493h-0.373c-0.82,0-1.492,0.673-1.492,1.493v1.513h-4.361V2.551
		c0-0.819-0.67-1.493-1.492-1.493h-0.372c-0.82,0-1.492,0.673-1.492,1.493v1.513h-4.361V2.551c0-0.819-0.671-1.493-1.493-1.493
		h-0.373c-0.82,0-1.492,0.673-1.492,1.493v1.513h-4.362V2.551c0-0.819-0.671-1.493-1.493-1.493H9.757
		c-0.82,0-1.492,0.673-1.492,1.493v1.513H1.203v44.75h40.293V34.998l-2.984,2.984V45.829z"/>
</g>
</svg>
