<?xml version="1.0" encoding="utf-8"?>
<!-- Generator: Adobe Illustrator 15.0.2, SVG Export Plug-In . SVG Version: 6.00 Build 0)  -->
<!DOCTYPE svg PUBLIC "-//W3C//DTD SVG 1.1//EN" "http://www.w3.org/Graphics/SVG/1.1/DTD/svg11.dtd">
<svg version="1.1" id="Calque_1" xmlns="http://www.w3.org/2000/svg" xmlns:xlink="http://www.w3.org/1999/xlink" x="0px" y="0px"
	 width="50px" height="50px" viewBox="0 0 50 50" enable-background="new 0 0 50 50" xml:space="preserve">
<path id="clipboard-5-icon" fill="#4E9FD6" d="M37.228,7.017c-0.909,0-1.78-0.359-2.427-1l-2.176-2.166H18.324l-2.177,2.166
	c-0.646,0.641-1.517,1-2.426,1H7.824V45.05h35.301V7.017H37.228z M39.074,41h-27.3V11h6.233l2.492,2.5h10.125l2.523-2.5h5.926V41
	L39.074,41z M15.162,21.736l0.9-0.832c1.053,0.509,1.721,0.897,2.904,1.739c2.225-2.523,3.693-3.805,6.427-5.504l0.293,0.674
	c-2.253,1.966-3.903,4.156-6.28,8.418C17.94,24.505,16.961,23.405,15.162,21.736z M15.162,32.437l0.9-0.832
	c1.053,0.509,1.721,0.896,2.904,1.74c2.225-2.524,3.693-3.807,6.427-5.506l0.293,0.674c-2.253,1.967-3.903,4.156-6.28,8.418
	C17.94,35.205,16.961,34.104,15.162,32.437z M35.633,20.9h-7v-2h7V20.9z M35.633,22.65h-7v2h7V22.65z M35.633,32.567h-7v-2h7V32.567
	z M35.633,34.317h-7v2h7V34.317z"/>
</svg>
