<?xml version="1.0" encoding="utf-8"?>
<!-- Generator: Adobe Illustrator 15.0.2, SVG Export Plug-In . SVG Version: 6.00 Build 0)  -->
<!DOCTYPE svg PUBLIC "-//W3C//DTD SVG 1.1//EN" "http://www.w3.org/Graphics/SVG/1.1/DTD/svg11.dtd">
<svg version="1.1" id="Calque_1" xmlns="http://www.w3.org/2000/svg" xmlns:xlink="http://www.w3.org/1999/xlink" x="0px" y="0px"
	 width="50px" height="50px" viewBox="0 0 50 50" enable-background="new 0 0 50 50" xml:space="preserve">
<g id="Supprimer">
	<polygon fill="#49a0df" points="31.488,13.158 25.231,19.43 18.974,13.16 13.611,18.535 19.868,24.807 13.611,31.079 
		18.974,36.454 25.231,30.182 31.488,36.454 36.852,31.079 30.594,24.807 36.852,18.535 	"/>
	<path fill="#49a0df" d="M41.98,8.018c-4.625-4.636-10.687-6.955-16.749-6.955c-6.062,0-12.125,2.318-16.75,6.955
		c-9.25,9.271-9.25,24.305,0,33.578c4.625,4.636,10.688,6.954,16.75,6.954c6.062,0,12.124-2.318,16.749-6.954
		C51.231,32.323,51.231,17.29,41.98,8.018z M39.363,38.973c-3.774,3.783-8.793,5.867-14.132,5.867
		c-5.338,0-10.358-2.084-14.133-5.867c-3.774-3.784-5.853-8.815-5.853-14.166c0-5.352,2.079-10.382,5.853-14.166
		c3.775-3.784,8.795-5.868,14.133-5.868c5.339,0,10.357,2.084,14.132,5.868h0.001c3.774,3.784,5.854,8.814,5.854,14.166
		C45.218,30.157,43.139,35.188,39.363,38.973z"/>
</g>
</svg>
