<?xml version="1.0" encoding="utf-8"?>
<!-- Generator: Adobe Illustrator 15.0.2, SVG Export Plug-In . SVG Version: 6.00 Build 0)  -->
<!DOCTYPE svg PUBLIC "-//W3C//DTD SVG 1.1//EN" "http://www.w3.org/Graphics/SVG/1.1/DTD/svg11.dtd">
<svg version="1.1" id="Calque_1" xmlns="http://www.w3.org/2000/svg" xmlns:xlink="http://www.w3.org/1999/xlink" x="0px" y="0px"
	 width="50px" height="50px" viewBox="0 0 50 50" enable-background="new 0 0 50 50" xml:space="preserve">
<path id="gear-5-icon" fill="#00FF33" d="M45.981,27.558v-5.549l-4.925-1.75c-0.34-1.18-0.81-2.304-1.392-3.356l2.244-4.724
	l-3.924-3.924L33.263,10.5c-1.053-0.583-2.177-1.052-3.355-1.392l-1.752-4.926h-5.549l-1.75,4.926
	c-1.18,0.34-2.304,0.809-3.356,1.392l-4.724-2.245l-3.922,3.924l2.244,4.724c-0.583,1.053-1.052,2.177-1.392,3.356l-4.925,1.75
	v5.549l4.925,1.752c0.34,1.18,0.81,2.304,1.392,3.355l-2.244,4.723l3.922,3.924l4.724-2.244c1.053,0.582,2.177,1.052,3.356,1.392
	l1.75,4.925h5.549l1.752-4.925c1.18-0.34,2.304-0.81,3.355-1.392l4.723,2.244l3.924-3.924l-2.244-4.723
	c0.582-1.053,1.052-2.177,1.392-3.355L45.981,27.558z M25.382,32.339c-4.172,0-7.555-3.383-7.555-7.555s3.382-7.555,7.555-7.555
	c4.172,0,7.555,3.382,7.555,7.555C32.937,28.956,29.554,32.339,25.382,32.339z"/>
</svg>
