<?xml version="1.0" encoding="utf-8"?>
<!-- Generator: Adobe Illustrator 15.0.2, SVG Export Plug-In . SVG Version: 6.00 Build 0)  -->
<!DOCTYPE svg PUBLIC "-//W3C//DTD SVG 1.1//EN" "http://www.w3.org/Graphics/SVG/1.1/DTD/svg11.dtd">
<svg version="1.1" id="Calque_1" xmlns="http://www.w3.org/2000/svg" xmlns:xlink="http://www.w3.org/1999/xlink" x="0px" y="0px"
	 width="50px" height="50px" viewBox="0 0 50 50" enable-background="new 0 0 50 50" xml:space="preserve">
<g id="Aide">
	<path fill="#49A0DF" d="M39.762,10.239C35.686,6.164,30.342,4.125,25,4.125s-10.685,2.039-14.76,6.114
		c-8.152,8.151-8.152,21.369,0,29.521c4.076,4.076,9.418,6.114,14.76,6.114s10.686-2.038,14.762-6.114
		C47.913,31.608,47.913,18.391,39.762,10.239z M37.454,37.454c-3.326,3.327-7.749,5.159-12.454,5.159
		c-4.705,0-9.127-1.833-12.454-5.159c-6.868-6.866-6.868-18.042-0.001-24.908C15.873,9.219,20.295,7.387,25,7.387
		c4.706,0,9.128,1.833,12.454,5.159C44.322,19.413,44.322,30.588,37.454,37.454z"/>
	<path fill="#49A0DF" d="M31.026,14.28c-1.439-0.977-3.368-1.472-5.732-1.472c-3.033,0-5.305,0.708-6.754,2.103
		c-1.396,1.343-2.231,3.128-2.488,5.309l5.928,0.732c0.17-1.229,0.511-2.091,1.042-2.625c0.574-0.579,1.305-0.873,2.174-0.873
		c0.808,0,1.431,0.198,1.847,0.588c0.422,0.397,0.636,0.949,0.636,1.642c0,0.713-0.477,1.45-1.46,2.249
		c-1.679,1.393-2.77,2.372-3.24,2.915c-0.46,0.527-0.812,1.119-1.043,1.758c-0.233,0.64-0.353,1.493-0.353,2.539v0.346h5.792
		c0.029-0.785,0.189-1.448,0.473-1.967c0.316-0.581,1.038-1.312,2.209-2.24c1.583-1.245,2.641-2.305,3.146-3.154
		c0.493-0.833,0.746-1.708,0.746-2.598C33.948,17.328,32.992,15.608,31.026,14.28z"/>
	<circle fill="#49A0DF" cx="24.683" cy="34.819" r="3.19"/>
</g>
</svg>
