<?xml version="1.0" encoding="utf-8"?>
<!-- Generator: Adobe Illustrator 15.0.2, SVG Export Plug-In . SVG Version: 6.00 Build 0)  -->
<!DOCTYPE svg PUBLIC "-//W3C//DTD SVG 1.1//EN" "http://www.w3.org/Graphics/SVG/1.1/DTD/svg11.dtd">
<svg version="1.1" id="Calque_1" xmlns="http://www.w3.org/2000/svg" xmlns:xlink="http://www.w3.org/1999/xlink" x="0px" y="0px"
	 width="50px" height="50px" viewBox="0 0 50 50" enable-background="new 0 0 50 50" xml:space="preserve">
<g id="Aide">
	<path fill="#49a0df" d="M41.883,8.118C37.22,3.457,31.11,1.125,25,1.125c-6.11,0-12.22,2.332-16.882,6.993
		c-9.323,9.323-9.323,24.44,0,33.764C12.78,46.544,18.89,48.875,25,48.875c6.11,0,12.22-2.331,16.883-6.993
		C51.206,32.559,51.206,17.441,41.883,8.118z M39.244,39.244c-3.805,3.805-8.863,5.9-14.244,5.9s-10.439-2.096-14.244-5.9
		C2.901,31.39,2.901,18.61,10.755,10.756c3.806-3.805,8.864-5.9,14.245-5.9c5.382,0,10.439,2.096,14.244,5.9
		C47.099,18.61,47.099,31.39,39.244,39.244z"/>
	<path fill="#49a0df" d="M31.892,12.739c-1.646-1.117-3.852-1.684-6.555-1.684c-3.469,0-6.068,0.81-7.725,2.406
		c-1.597,1.536-2.552,3.577-2.846,6.071l6.78,0.838c0.194-1.406,0.585-2.392,1.191-3.003c0.656-0.662,1.492-0.998,2.486-0.998
		c0.924,0,1.636,0.226,2.112,0.673c0.483,0.454,0.728,1.086,0.728,1.878c0,0.816-0.546,1.658-1.671,2.572
		c-1.92,1.593-3.167,2.713-3.705,3.334c-0.527,0.603-0.928,1.279-1.193,2.011c-0.267,0.731-0.403,1.708-0.403,2.904v0.396h6.624
		c0.034-0.899,0.216-1.657,0.541-2.25c0.361-0.664,1.188-1.501,2.526-2.562c1.811-1.424,3.021-2.636,3.599-3.607
		c0.565-0.953,0.854-1.953,0.854-2.971C35.234,16.225,34.141,14.259,31.892,12.739z"/>
	<circle fill="#49a0df" cx="24.637" cy="36.23" r="3.648"/>
</g>
</svg>
