<?xml version="1.0" encoding="utf-8"?>
<!-- Generator: Adobe Illustrator 15.0.2, SVG Export Plug-In . SVG Version: 6.00 Build 0)  -->
<!DOCTYPE svg PUBLIC "-//W3C//DTD SVG 1.1//EN" "http://www.w3.org/Graphics/SVG/1.1/DTD/svg11.dtd">
<svg version="1.1" id="Calque_1" xmlns="http://www.w3.org/2000/svg" xmlns:xlink="http://www.w3.org/1999/xlink" x="0px" y="0px"
	 width="50px" height="50px" viewBox="0 0 50 50" enable-background="new 0 0 50 50" xml:space="preserve">
<path id="link-2-icon" d="M35.186,24.8c0,1.5-0.939,2.717-2.102,2.717h-15.82c-1.16,0.001-2.1-1.217-2.1-2.717l0,0
	c0-1.501,0.939-2.718,2.1-2.717h15.82C34.244,22.083,35.186,23.3,35.186,24.8L35.186,24.8z M12.79,30.265
	c-2.329,0-4.223-2.451-4.223-5.464s1.895-5.464,4.223-5.464l11.205,0.008c-1.424-3.023-3.998-5.044-6.936-5.044h-4.27
	c-4.482,0-8.115,4.701-8.115,10.5s3.633,10.5,8.115,10.5h4.27c2.938,0,5.51-2.019,6.936-5.043L12.79,30.265z M37.561,14.3h-4.271
	c-2.938,0-5.51,2.012-6.934,5.036h11.203c2.328,0,4.225,2.45,4.225,5.464s-1.896,5.463-4.225,5.464H26.355
	c1.426,3.022,3.996,5.035,6.936,5.035h4.27c4.482,0,8.115-4.701,8.115-10.5C45.676,19.002,42.041,14.3,37.561,14.3z"/>
</svg>
