<?xml version="1.0" encoding="utf-8"?>
<!-- Generator: Adobe Illustrator 15.0.2, SVG Export Plug-In . SVG Version: 6.00 Build 0)  -->
<!DOCTYPE svg PUBLIC "-//W3C//DTD SVG 1.1//EN" "http://www.w3.org/Graphics/SVG/1.1/DTD/svg11.dtd">
<svg version="1.1" id="Calque_1" xmlns="http://www.w3.org/2000/svg" xmlns:xlink="http://www.w3.org/1999/xlink" x="0px" y="0px"
	 width="50px" height="50px" viewBox="0 0 50 50" enable-background="new 0 0 50 50" xml:space="preserve">
<g id="Verrou">
	<path fill="#49A0DF" d="M40.078,24.5H36.5v-9h0.45c-0.044-6-5.055-11.618-11.232-11.618c-6.177,0-11.187,5.618-11.233,11.618H14.5
		v9h-3.142c-0.687,0-0.858,1.031-0.858,1.747v18.212c0,0.716,0.171,1.041,0.858,1.041h28.72c0.686,0,1.422-0.325,1.422-1.041V26.247
		C41.5,25.531,40.764,24.5,40.078,24.5z M18.5,15.826c0,0.012,0.18,0.022,0.18,0.034c0.027-3.915,3.194-7.1,6.951-7.1
		c3.756,0,6.836,3.185,6.863,7.1c0-0.012,0.006-0.022,0.006-0.034V24.5h-14V15.826z M28.067,38.5h-4.699l1.509-4.511
		c-0.961-0.358-1.651-1.271-1.651-2.396c0-1.434,1.116-2.578,2.492-2.578c1.377,0,2.492,1.172,2.492,2.605
		c0,1.125-0.69,2.005-1.651,2.363L28.067,38.5z"/>
</g>
</svg>
