<?xml version="1.0" encoding="utf-8"?>
<!-- Generator: Adobe Illustrator 15.0.2, SVG Export Plug-In . SVG Version: 6.00 Build 0)  -->
<!DOCTYPE svg PUBLIC "-//W3C//DTD SVG 1.1//EN" "http://www.w3.org/Graphics/SVG/1.1/DTD/svg11.dtd">
<svg version="1.1" id="Calque_1" xmlns="http://www.w3.org/2000/svg" xmlns:xlink="http://www.w3.org/1999/xlink" x="0px" y="0px"
	 width="50px" height="50px" viewBox="0 0 50 50" enable-background="new 0 0 50 50" xml:space="preserve">
<g id="Verrou">
	<path fill="#49a0df" d="M42.838,24.941h-3.722V14.504H39.11C39.057,7.152,33.083,1.208,25.718,1.208
		c-7.365,0-13.338,5.944-13.393,13.296H12.32v10.437H8.598c-0.819,0-1.489,0.67-1.489,1.489v20.842c0,0.818,0.67,1.488,1.489,1.488
		h34.24c0.818,0,1.488-0.67,1.488-1.488V26.43C44.326,25.611,43.656,24.941,42.838,24.941z M17.53,14.504
		c0,0.013,0.005,0.026,0.005,0.039c0.033-4.48,3.704-8.125,8.183-8.125c4.479,0,8.149,3.645,8.183,8.125
		c0-0.013,0.005-0.026,0.005-0.039v10.437H17.53V14.504z M28.519,40.617h-5.602l1.799-5.244c-1.146-0.411-1.969-1.496-1.969-2.783
		c0-1.642,1.33-2.971,2.971-2.971c1.642,0,2.971,1.329,2.971,2.971c0,1.287-0.823,2.372-1.969,2.783L28.519,40.617z"/>
</g>
</svg>
