<?xml version="1.0" encoding="utf-8"?>
<!-- Generator: Adobe Illustrator 15.0.2, SVG Export Plug-In . SVG Version: 6.00 Build 0)  -->
<!DOCTYPE svg PUBLIC "-//W3C//DTD SVG 1.1//EN" "http://www.w3.org/Graphics/SVG/1.1/DTD/svg11.dtd">
<svg version="1.1" id="Calque_1" xmlns="http://www.w3.org/2000/svg" xmlns:xlink="http://www.w3.org/1999/xlink" x="0px" y="0px"
	 width="50px" height="50px" viewBox="0 0 50 50" enable-background="new 0 0 50 50" xml:space="preserve">
<g id="Outils">
	<path fill="#49A0DF" d="M38.963,31.843L38.963,31.843c-0.129,0-0.252,0.013-0.377,0.019L25.732,19.01
		c-0.901-0.901-2.208-1.146-3.34-0.758l2.006-5.879c0.329-0.968-0.005-2.396-0.727-3.12L19.471,5.05
		c-0.726-0.725-2.153-1.059-3.121-0.729l-2.519,0.86c-0.412,0.141-0.673,0.375-0.742,0.667c-0.069,0.289,0.062,0.616,0.371,0.924
		l2.708,2.697c0.953,0.958,0.95,2.516-0.005,3.471l-2.9,2.9c-0.461,0.46-1.077,0.714-1.73,0.714c-0.662,0-1.279-0.255-1.743-0.719
		l-2.695-2.697c-0.31-0.308-0.637-0.44-0.925-0.372c-0.288,0.068-0.522,0.332-0.664,0.742l-0.862,2.52
		c-0.33,0.972,0.004,2.4,0.727,3.121l4.203,4.201c0.723,0.724,2.148,1.056,3.112,0.729l5.887-2.009
		c-0.388,1.134-0.144,2.442,0.756,3.341l12.854,12.854c-0.009,0.125-0.019,0.249-0.019,0.377c0,3.755,3.043,6.8,6.798,6.8
		s6.802-3.045,6.802-6.8C45.764,34.887,42.718,31.843,38.963,31.843z M38.963,42.209c-1.967,0-3.563-1.602-3.563-3.565
		c0-0.951,0.368-1.849,1.045-2.521c0.673-0.673,1.564-1.043,2.519-1.043c1.963,0,3.562,1.598,3.562,3.563
		C42.525,40.607,40.926,42.209,38.963,42.209z"/>
</g>
</svg>
