<?xml version="1.0" encoding="utf-8"?>
<!-- Generator: Adobe Illustrator 15.0.2, SVG Export Plug-In . SVG Version: 6.00 Build 0)  -->
<!DOCTYPE svg PUBLIC "-//W3C//DTD SVG 1.1//EN" "http://www.w3.org/Graphics/SVG/1.1/DTD/svg11.dtd">
<svg version="1.1" id="Calque_1" xmlns="http://www.w3.org/2000/svg" xmlns:xlink="http://www.w3.org/1999/xlink" x="0px" y="0px"
	 width="50px" height="50px" viewBox="0 0 50 50" enable-background="new 0 0 50 50" xml:space="preserve">
<g id="Outils">
	<path fill="#49a0df" d="M40.975,32.864h-0.003c-0.146,0-0.287,0.015-0.43,0.022L25.818,18.165
		c-1.031-1.032-2.528-1.312-3.825-0.868l2.298-6.734c0.377-1.109-0.006-2.745-0.833-3.574l-4.812-4.814
		c-0.831-0.831-2.466-1.213-3.574-0.835l-2.886,0.985c-0.472,0.161-0.771,0.43-0.85,0.764c-0.079,0.331,0.07,0.706,0.425,1.058
		l3.101,3.09c1.091,1.097,1.088,2.881-0.006,3.976l-3.322,3.322c-0.528,0.527-1.233,0.818-1.982,0.818
		c-0.758,0-1.465-0.293-1.997-0.824l-3.087-3.089c-0.355-0.353-0.73-0.504-1.06-0.426c-0.33,0.079-0.598,0.38-0.76,0.85L1.66,14.751
		c-0.378,1.113,0.005,2.749,0.833,3.575l4.815,4.812c0.828,0.829,2.46,1.21,3.565,0.835l6.743-2.301
		c-0.444,1.298-0.165,2.797,0.866,3.827l14.723,14.724c-0.009,0.143-0.021,0.285-0.021,0.432c0,4.3,3.486,7.789,7.787,7.789
		s7.791-3.489,7.791-7.789C48.763,36.352,45.275,32.864,40.975,32.864z M40.975,44.738c-2.254,0-4.083-1.833-4.083-4.083
		c0-1.091,0.423-2.118,1.197-2.887c0.77-0.772,1.792-1.196,2.886-1.196c2.248,0,4.08,1.831,4.08,4.083
		C45.055,42.905,43.223,44.738,40.975,44.738z"/>
</g>
</svg>
