<?xml version="1.0" encoding="utf-8"?>
<!-- Generator: Adobe Illustrator 15.0.2, SVG Export Plug-In . SVG Version: 6.00 Build 0)  -->
<!DOCTYPE svg PUBLIC "-//W3C//DTD SVG 1.1//EN" "http://www.w3.org/Graphics/SVG/1.1/DTD/svg11.dtd">
<svg version="1.1" id="Calque_1" xmlns="http://www.w3.org/2000/svg" xmlns:xlink="http://www.w3.org/1999/xlink" x="0px" y="0px"
	 width="50px" height="50px" viewBox="0 0 50 50" enable-background="new 0 0 50 50" xml:space="preserve">
<g id="Bloc-notes">
	<path fill="#49a0df" d="M19.053,8.141V6.573h4.418v1.567c0,0.83,0.679,1.511,1.511,1.511h0.378c0.831,0,1.512-0.681,1.512-1.511
		V6.573h4.415v1.567c0,0.83,0.682,1.511,1.512,1.511h0.378c0.832,0,1.512-0.681,1.512-1.511V6.573h0.902l2.877,2.825v4.521h3.022
		v-5.79L36.828,3.55h-2.139V2.018c0-0.83-0.68-1.512-1.512-1.512H32.8c-0.83,0-1.512,0.682-1.512,1.512V3.55h-4.415V2.018
		c0-0.83-0.682-1.512-1.512-1.512h-0.378c-0.833,0-1.511,0.682-1.511,1.512V3.55h-4.418V2.018c0-0.83-0.68-1.512-1.511-1.512h-0.378
		c-0.831,0-1.512,0.682-1.512,1.512V3.55h-4.417V2.018c0-0.83-0.68-1.512-1.511-1.512H9.346c-0.832,0-1.512,0.682-1.512,1.512V3.55
		H0.681v45.325h13.351l0.757-3.023H3.704V6.573h4.13v1.567c0,0.83,0.68,1.511,1.512,1.511h0.378c0.832,0,1.511-0.681,1.511-1.511
		V6.573h4.417v1.567c0,0.83,0.681,1.511,1.512,1.511h0.378C18.374,9.652,19.053,8.971,19.053,8.141z"/>
	<path fill="#49a0df" d="M48.072,23.486l-4.838-4.839c-1.175-1.177-3.08-1.198-4.229-0.049c-0.002,0.001-0.003,0.003-0.004,0.005
		L39,18.601L21.359,36.242l-0.356,0.351l-3.054,12.193L30.13,45.73l1.138-1.157l0,0l16.852-16.857h-0.001
		c0.001-0.001,0.001-0.001,0.002-0.003C49.271,26.566,49.248,24.662,48.072,23.486z M22.253,37.823l6.659,6.657l-6.252,1.566
		l-1.952-2.055L22.253,37.823z M30.136,40.361l-3.775-3.776L39,23.944l3.775,3.775L30.136,40.361z"/>
</g>
</svg>
