<?xml version="1.0" encoding="utf-8"?>
<!-- Generator: Adobe Illustrator 15.0.2, SVG Export Plug-In . SVG Version: 6.00 Build 0)  -->
<!DOCTYPE svg PUBLIC "-//W3C//DTD SVG 1.1//EN" "http://www.w3.org/Graphics/SVG/1.1/DTD/svg11.dtd">
<svg version="1.1" id="Calque_1" xmlns="http://www.w3.org/2000/svg" xmlns:xlink="http://www.w3.org/1999/xlink" x="0px" y="0px"
	 width="50px" height="50px" viewBox="0 0 50 50" enable-background="new 0 0 50 50" xml:space="preserve">
<g id="Bloc-notes">
	<path fill="#49A0DF" d="M19.5,10.536V9.5h4v1.036c0,0.71,0.748,0.964,1.459,0.964h0.323c0.711,0,1.218-0.254,1.218-0.964V9.5h4
		v1.036c0,0.71,0.434,0.964,1.143,0.964h0.323c0.711,0,1.534-0.254,1.534-0.964V9.5h0.53l2.47,2.111V15.5h3v-4.975L35.088,6.5H33.5
		V5.299c0-0.71-0.823-0.799-1.534-0.799h-0.322c-0.709,0-1.144,0.089-1.144,0.799V6.5h-4V5.299c0-0.71-0.507-0.799-1.217-0.799
		H24.96c-0.712,0-1.46,0.089-1.46,0.799V6.5h-4V5.299c0-0.71-0.19-0.799-0.901-0.799h-0.323c-0.71,0-1.775,0.089-1.775,0.799V6.5h-3
		V5.299c0-0.71-0.875-0.799-1.586-0.799H11.59c-0.711,0-1.09,0.089-1.09,0.799V6.5h-6v39h11.097l0.647-3H6.5v-33h4v1.036
		c0,0.71,0.379,0.964,1.09,0.964h0.323c0.711,0,1.587-0.254,1.587-0.964V9.5h3v1.036c0,0.71,1.064,0.964,1.775,0.964h0.323
		C19.31,11.5,19.5,11.247,19.5,10.536z"/>
	<path fill="#49A0DF" d="M44.702,23.66l-4.136-4.139c-1.006-1.006-2.856-1.024-3.84-0.042c-0.002,0.001-0.227,0.002-0.227,0.004
		v-0.002L21.639,34.57l-0.193,0.3l-2.556,10.429l10.443-2.613l0.985-0.99l0,0l14.417-14.417h0.002
		c0.001-0.001,0.003-0.001,0.004-0.003C45.727,26.295,45.707,24.666,44.702,23.66z M22.626,35.923l5.693,5.693l-5.345,1.339
		l-1.669-1.758L22.626,35.923z M29.366,38.093l-3.228-3.229l10.806-10.811l3.229,3.228L29.366,38.093z"/>
</g>
</svg>
