<?xml version="1.0" encoding="utf-8"?>
<!-- Generator: Adobe Illustrator 15.0.2, SVG Export Plug-In . SVG Version: 6.00 Build 0)  -->
<!DOCTYPE svg PUBLIC "-//W3C//DTD SVG 1.1//EN" "http://www.w3.org/Graphics/SVG/1.1/DTD/svg11.dtd">
<svg version="1.1" id="Calque_1" xmlns="http://www.w3.org/2000/svg" xmlns:xlink="http://www.w3.org/1999/xlink" x="0px" y="0px"
	 width="50px" height="50px" viewBox="0 0 50 50" enable-background="new 0 0 50 50" xml:space="preserve">
<g id="Horloge">
	<path fill="#49A0DF" d="M25,3.833c-11.506,0-20.833,9.328-20.833,20.833C4.167,36.172,13.495,45.5,25,45.5
		c11.506,0,20.833-9.328,20.833-20.833C45.834,13.161,36.506,3.833,25,3.833z M25,40.943c-8.975,0-16.276-7.302-16.276-16.276
		S16.026,8.39,25,8.39c8.975,0,16.275,7.302,16.275,16.276C41.275,33.642,33.976,40.943,25,40.943z"/>
	<path fill="#49A0DF" d="M35.063,24.172h-9.096V13.497c0-0.899-0.73-1.628-1.629-1.628c-0.898,0-1.627,0.729-1.627,1.628V27.2
		c0,0.897,0.729,1.628,1.627,1.628c0.208,0,0.403-0.043,0.586-0.113c0.05,0.003,0.097,0.016,0.148,0.016h9.99
		c1.259,0,2.278-1.021,2.278-2.279C37.341,25.192,36.321,24.172,35.063,24.172z"/>
</g>
</svg>
