<?xml version="1.0" encoding="utf-8"?>
<!-- Generator: Adobe Illustrator 15.0.2, SVG Export Plug-In . SVG Version: 6.00 Build 0)  -->
<!DOCTYPE svg PUBLIC "-//W3C//DTD SVG 1.1//EN" "http://www.w3.org/Graphics/SVG/1.1/DTD/svg11.dtd">
<svg version="1.1" id="Calque_1" xmlns="http://www.w3.org/2000/svg" xmlns:xlink="http://www.w3.org/1999/xlink" x="0px" y="0px"
	 width="50px" height="50px" viewBox="0 0 50 50" enable-background="new 0 0 50 50" xml:space="preserve">
<g id="Horloge">
	<path fill="#49a0df" d="M25,1.333c-12.887,0-23.333,10.447-23.333,23.333C1.667,37.553,12.114,48,25,48
		c12.886,0,23.333-10.447,23.333-23.333C48.334,11.78,37.887,1.333,25,1.333z M25,42.896c-10.052,0-18.229-8.177-18.229-18.229
		C6.771,14.615,14.949,6.437,25,6.437c10.052,0,18.229,8.178,18.229,18.229C43.229,34.719,35.053,42.896,25,42.896z"/>
	<path fill="#49a0df" d="M36.271,24.113H26.084V12.156c0-1.007-0.818-1.823-1.825-1.823c-1.006,0-1.822,0.816-1.822,1.823v15.348
		c0,1.006,0.816,1.823,1.822,1.823c0.232,0,0.452-0.048,0.656-0.127c0.056,0.004,0.109,0.018,0.166,0.018h11.189
		c1.409,0,2.552-1.143,2.552-2.553C38.822,25.255,37.68,24.113,36.271,24.113z"/>
</g>
</svg>
