<?xml version="1.0" encoding="utf-8"?>
<!-- Generator: Adobe Illustrator 15.0.2, SVG Export Plug-In . SVG Version: 6.00 Build 0)  -->
<!DOCTYPE svg PUBLIC "-//W3C//DTD SVG 1.1//EN" "http://www.w3.org/Graphics/SVG/1.1/DTD/svg11.dtd">
<svg version="1.1" id="Calque_1" xmlns="http://www.w3.org/2000/svg" xmlns:xlink="http://www.w3.org/1999/xlink" x="0px" y="0px"
	 width="50px" height="50px" viewBox="0 0 50 50" enable-background="new 0 0 50 50" xml:space="preserve">
<g id="Dossier">
	<path fill="#FFFFFF" d="M43.068,15.925v-8.46H26.406L20.26,3.662H1.182v42.617h38.947h2.941c5.623,0,5.886-8.151,5.886-10.51
		c0-2.357,0-19.845,0-19.845H43.068z M6.326,8.806h12.471l6.146,3.802h12.98v3.317H9.651c0,0,0,16.314,0,18.671
		c0,1.928-1.146,4.229-3.031,6.538H6.326V8.806z M46.018,35.771c0,1.264-0.144,7.568-2.945,7.568H8.612
		c2.555-3.039,3.978-6.094,3.978-8.742V18.865h33.426v16.906H46.018z"/>
</g>
</svg>
