<?xml version="1.0" encoding="utf-8"?>
<!-- Generator: Adobe Illustrator 15.0.2, SVG Export Plug-In . SVG Version: 6.00 Build 0)  -->
<!DOCTYPE svg PUBLIC "-//W3C//DTD SVG 1.1//EN" "http://www.w3.org/Graphics/SVG/1.1/DTD/svg11.dtd">
<svg version="1.1" id="Calque_1" xmlns="http://www.w3.org/2000/svg" xmlns:xlink="http://www.w3.org/1999/xlink" x="0px" y="0px"
	 width="50px" height="50px" viewBox="231 231 50 50" enable-background="new 231 231 50 50" xml:space="preserve">
<path id="gear-10-icon" fill="#FFFFFF" d="M263.781,253.161v-3.822l-2.065-0.734c-0.787-0.28-1.421-0.881-1.741-1.653
	c0,0,0,0,0-0.001c-0.321-0.774-0.299-1.647,0.061-2.404l0.941-1.979l-2.703-2.703l-1.978,0.94c-0.756,0.36-1.631,0.382-2.405,0.062
	c0,0-0.001,0-0.001,0c-0.773-0.32-1.373-0.953-1.653-1.741l-0.734-2.065h-3.822l-0.735,2.065c-0.28,0.787-0.881,1.421-1.653,1.741
	c0,0,0,0-0.001,0c-0.774,0.321-1.647,0.298-2.404-0.061l-1.979-0.941l-2.703,2.703l0.941,1.979c0.359,0.756,0.382,1.631,0.061,2.405
	c0,0,0,0,0,0.001c-0.32,0.772-0.953,1.373-1.741,1.653l-2.065,0.734v3.822l2.065,0.735c0.788,0.28,1.421,0.881,1.741,1.653
	c0,0,0,0,0,0.001c0.321,0.774,0.298,1.647-0.062,2.404l-0.94,1.979l2.703,2.703l1.979-0.94c0.756-0.359,1.631-0.382,2.405-0.062
	c0,0,0.001,0,0.001,0c0.772,0.32,1.373,0.953,1.653,1.741l0.735,2.065h3.822l0.73-2.053c0.282-0.794,0.889-1.434,1.667-1.758
	c0,0,0.001,0,0.001,0c0.767-0.319,1.632-0.297,2.382,0.06l1.991,0.946l2.703-2.703l-0.941-1.979
	c-0.359-0.756-0.381-1.63-0.061-2.402c0,0,0-0.001,0-0.001c0.321-0.773,0.954-1.375,1.743-1.655L263.781,253.161z M249.591,256.454
	c-2.875,0-5.204-2.33-5.204-5.204s2.33-5.204,5.204-5.204c2.874,0,5.204,2.33,5.204,5.204S252.465,256.454,249.591,256.454z
	 M276.6,264.398v-2.032l-1.098-0.39c-0.419-0.148-0.756-0.469-0.926-0.879c0,0,0,0,0-0.001c-0.171-0.411-0.158-0.876,0.032-1.278
	l0.5-1.052l-1.437-1.437l-1.052,0.5c-0.402,0.19-0.867,0.203-1.278,0.032c0,0,0,0-0.001,0c-0.41-0.17-0.729-0.507-0.878-0.926
	l-0.391-1.098h-2.032l-0.391,1.098c-0.148,0.419-0.469,0.756-0.879,0.926l0,0c-0.411,0.171-0.876,0.159-1.278-0.032l-1.052-0.5
	l-1.438,1.437l0.501,1.052c0.19,0.402,0.202,0.867,0.032,1.278c0,0.001,0,0.001-0.001,0.001c-0.17,0.41-0.506,0.729-0.925,0.879
	l-1.099,0.39v2.032l1.099,0.391c0.419,0.148,0.755,0.468,0.925,0.879c0.001,0,0.001,0,0.001,0c0.171,0.412,0.158,0.876-0.032,1.278
	l-0.501,1.052l1.438,1.438l1.052-0.5c0.402-0.191,0.867-0.203,1.278-0.033v0.001c0.411,0.17,0.729,0.506,0.879,0.925l0.391,1.099
	h2.032l0.388-1.092c0.15-0.422,0.473-0.762,0.887-0.935c0,0,0,0,0.001,0c0.407-0.17,0.867-0.158,1.266,0.031l1.059,0.504
	l1.437-1.438l-0.5-1.052c-0.19-0.402-0.203-0.867-0.032-1.277v-0.001c0.171-0.411,0.507-0.73,0.927-0.88L276.6,264.398z
	 M269.056,266.149c-1.527,0-2.766-1.239-2.766-2.767c0-1.528,1.238-2.767,2.766-2.767c1.528,0,2.767,1.238,2.767,2.767
	C271.822,264.91,270.584,266.149,269.056,266.149z M261.929,270.381v-1.114l-0.775-0.193c-0.161-0.04-0.287-0.165-0.33-0.325
	c0,0-0.001-0.001-0.001-0.002c-0.042-0.157,0.005-0.326,0.122-0.439l0.577-0.559l-0.558-0.965l-0.765,0.219
	c-0.161,0.047-0.336,0.002-0.455-0.117h-0.001c-0.113-0.114-0.157-0.281-0.112-0.436l0.222-0.777l-0.965-0.557l-0.556,0.574
	c-0.115,0.118-0.285,0.166-0.445,0.123c-0.001,0-0.002,0-0.002,0c-0.158-0.042-0.281-0.167-0.32-0.326l-0.195-0.778h-1.114
	l-0.194,0.775c-0.041,0.16-0.165,0.287-0.325,0.33c-0.001,0-0.002,0-0.002,0c-0.158,0.043-0.326-0.004-0.439-0.121l-0.559-0.577
	l-0.964,0.557l0.218,0.765c0.046,0.162,0.001,0.337-0.117,0.456h0c-0.114,0.114-0.28,0.157-0.436,0.113l-0.777-0.223l-0.557,0.965
	l0.575,0.556c0.119,0.115,0.166,0.286,0.124,0.445c0,0.001,0,0.002-0.001,0.003c-0.042,0.158-0.167,0.28-0.325,0.32l-0.779,0.194
	v1.114l0.775,0.194c0.161,0.04,0.288,0.164,0.33,0.324c0,0.001,0,0.002,0,0.003c0.042,0.157-0.004,0.325-0.122,0.439l-0.577,0.558
	l0.557,0.965l0.765-0.219c0.162-0.046,0.337-0.001,0.456,0.117c0,0.001,0,0.001,0,0.001c0.114,0.113,0.157,0.28,0.113,0.436
	l-0.222,0.777l0.964,0.557l0.556-0.574c0.115-0.119,0.286-0.167,0.445-0.124c0.001,0,0.002,0.001,0.003,0.001
	c0.158,0.042,0.28,0.167,0.32,0.325l0.195,0.779h1.114l0.194-0.775c0.04-0.161,0.164-0.287,0.324-0.33
	c0.001-0.001,0.002-0.001,0.003-0.001c0.157-0.042,0.325,0.005,0.439,0.122l0.558,0.577l0.965-0.557l-0.219-0.766
	c-0.046-0.161-0.001-0.336,0.118-0.455c0-0.001,0-0.001,0-0.001c0.113-0.114,0.28-0.157,0.436-0.113l0.776,0.223l0.558-0.965
	l-0.574-0.556c-0.119-0.114-0.167-0.285-0.124-0.445c0-0.001,0.001-0.002,0.001-0.002c0.042-0.158,0.167-0.281,0.325-0.32
	L261.929,270.381z M256.812,271.832c-1.109,0-2.008-0.899-2.008-2.008c0-1.109,0.899-2.008,2.008-2.008
	c1.108,0,2.008,0.898,2.008,2.008C258.82,270.933,257.921,271.832,256.812,271.832z"/>
</svg>
