<?xml version="1.0" encoding="utf-8"?>
<!-- Generator: Adobe Illustrator 15.0.2, SVG Export Plug-In . SVG Version: 6.00 Build 0)  -->
<!DOCTYPE svg PUBLIC "-//W3C//DTD SVG 1.1//EN" "http://www.w3.org/Graphics/SVG/1.1/DTD/svg11.dtd">
<svg version="1.1" id="Calque_1" xmlns="http://www.w3.org/2000/svg" xmlns:xlink="http://www.w3.org/1999/xlink" x="0px" y="0px"
	 width="50px" height="50px" viewBox="231 231 50 50" enable-background="new 231 231 50 50" xml:space="preserve">
<path id="clipboard-5-icon" fill="#FFFFFF" d="M267.753,238.567c-0.909,0-1.781-0.36-2.427-1.001l-2.176-2.166h-14.3l-2.177,2.166
	c-0.645,0.641-1.517,1.001-2.426,1.001h-5.897V276.6h35.3v-38.033H267.753z M269.6,272.55h-27.3v-30h6.233l2.492,2.5h10.125
	l2.524-2.5h5.925V272.55z M245.688,253.286l0.9-0.832c1.053,0.509,1.721,0.897,2.904,1.74c2.225-2.524,3.694-3.805,6.427-5.505
	l0.293,0.674c-2.253,1.966-3.904,4.157-6.28,8.418C248.466,256.055,247.487,254.955,245.688,253.286z M245.688,263.986l0.9-0.832
	c1.053,0.509,1.721,0.896,2.904,1.74c2.225-2.524,3.694-3.806,6.427-5.506l0.293,0.674c-2.253,1.967-3.904,4.157-6.28,8.419
	C248.466,266.755,247.487,265.654,245.688,263.986z M266.158,252.45h-7v-2h7V252.45z M266.158,254.2h-7v2h7V254.2z M266.158,264.117
	h-7v-2h7V264.117z M266.158,265.867h-7v2h7V265.867z"/>
</svg>
