<?xml version="1.0" encoding="utf-8"?>
<!-- Generator: Adobe Illustrator 15.0.2, SVG Export Plug-In . SVG Version: 6.00 Build 0)  -->
<!DOCTYPE svg PUBLIC "-//W3C//DTD SVG 1.1//EN" "http://www.w3.org/Graphics/SVG/1.1/DTD/svg11.dtd">
<svg version="1.1" id="Calque_1" xmlns="http://www.w3.org/2000/svg" xmlns:xlink="http://www.w3.org/1999/xlink" x="0px" y="0px"
	 width="512px" height="512px" viewBox="0 0 512 512" enable-background="new 0 0 512 512" xml:space="preserve">
<path id="user-3-icon" fill="#D88E30" d="M503.492,503.196H10.101c0-61.213-1.742-85.987,9.243-109.781
	c11.04-23.911,32.739-38.869,68.289-47.067c89.516-20.619,89.262-27.662,78.765-46.993
	c-49.438-91.043-58.424-171.845-25.304-227.518c23.232-39.051,65.406-61.447,115.705-61.447c49.92,0,91.831,22.076,114.985,60.566
	c40.588,67.472,12.411,158.649-24.476,228.192c-10.346,19.5-10.58,26.614,78.654,47.2c35.549,8.198,57.248,23.156,68.286,47.067
	C505.196,417.128,503.492,441.215,503.492,503.196z M58.066,455.137h397.46c0.019-43.221-2.853-53.308-40.364-61.961
	c-51.15-11.79-99.803-22.514-115.724-57.39c-7.97-17.455-6.148-37.36,5.416-59.158c27.722-52.263,56.079-130.48,25.748-180.898
	c-14.462-24.041-40.673-37.281-73.804-37.281c-33.417,0-59.839,13.481-74.401,37.959c-23.762,39.94-14.199,105.553,26.234,180.016
	c11.788,21.706,13.758,41.604,5.856,59.13c-15.935,35.342-64.819,45.824-116.054,57.622
	C60.918,401.829,58.048,411.916,58.066,455.137z"/>
</svg>
